<?xml version="1.0" standalone="no"?>
<!DOCTYPE svg PUBLIC "-//W3C//DTD SVG 20010904//EN"
 "http://www.w3.org/TR/2001/REC-SVG-20010904/DTD/svg10.dtd">
<svg version="1.0" xmlns="http://www.w3.org/2000/svg"
 width="300.000000pt" height="300.000000pt" viewBox="0 0 300.000000 300.000000"
 preserveAspectRatio="xMidYMid meet">
<metadata>
Created by potrace 1.10, written by Peter Selinger 2001-2011
</metadata>
<g transform="translate(0.000000,300.000000) scale(0.100000,-0.100000)"
fill="#d10000" stroke="none">
<path d="M1456 2093 c-16 -4 -18 -12 -13 -58 5 -48 3 -54 -16 -59 -12 -3 -31
-3 -43 0 -12 3 -31 1 -42 -5 -17 -9 -20 -24 -24 -123 -5 -120 1 -148 32 -148
25 0 34 44 26 134 -4 39 -3 77 2 84 7 10 153 12 698 10 l689 -3 0 -505 0 -505
-688 -5 c-627 -5 -690 -4 -698 11 -4 9 -6 54 -3 100 6 93 -3 122 -33 103 -15
-9 -18 -29 -21 -130 -2 -103 0 -120 15 -131 27 -20 1456 -19 1472 1 7 8 11 36
9 63 l-3 48 53 1 c28 0 55 4 60 8 12 13 14 1073 2 1096 -11 20 -23 20 -733 19
-397 -1 -730 -3 -741 -6z m1423 -57 c8 -9 10 -152 9 -512 l-3 -499 -35 0 -35
0 -2 375 c-1 206 -3 419 -3 472 l0 98 -657 2 -658 3 -3 23 c-8 55 -48 52 691
52 566 0 687 -2 696 -14z"/>
<path d="M382 1668 c-21 -21 -14 -57 13 -70 36 -16 75 3 75 36 0 39 -60 62
-88 34z"/>
<path d="M106 1647 c-22 -12 -49 -37 -59 -55 -17 -29 -18 -36 -6 -65 15 -38
29 -50 89 -77 94 -44 95 -44 98 -78 3 -32 3 -32 -42 -32 -39 0 -49 4 -68 30
-17 24 -29 30 -60 30 -33 0 -38 -3 -38 -23 0 -14 15 -39 36 -60 45 -45 109
-61 174 -45 122 29 121 167 0 214 -100 38 -128 66 -94 91 28 20 63 16 96 -13
39 -32 81 -30 86 4 4 29 -20 58 -70 83 -49 25 -94 24 -142 -4z"/>
<path d="M1408 1665 c-3 -3 -4 -90 -2 -193 l4 -187 26 -3 c26 -3 26 -3 20 45
-9 80 -16 239 -10 224 4 -7 15 -22 25 -32 11 -11 19 -28 19 -38 0 -11 5 -23
10 -26 6 -3 10 -14 10 -23 0 -10 9 -34 20 -55 11 -20 20 -44 20 -52 0 -8 5
-15 10 -15 6 0 10 -6 10 -14 0 -7 6 -19 14 -25 11 -9 18 -6 34 16 21 30 62
116 62 131 0 9 5 20 48 111 l21 45 3 -154 c3 -134 5 -155 19 -158 9 -2 18 3
21 10 2 7 2 100 0 206 l-4 192 -29 0 c-16 0 -29 -5 -29 -11 0 -9 -17 -51 -55
-134 -7 -16 -21 -48 -30 -70 -9 -22 -20 -49 -25 -60 -4 -11 -11 -29 -14 -39
-8 -24 -18 -13 -35 39 -16 49 -56 141 -98 230 -17 36 -49 56 -65 40z"/>
<path d="M1917 1549 c-49 -41 -67 -77 -67 -139 0 -84 66 -160 139 -160 30 0
80 30 86 51 9 28 5 30 -43 17 -63 -16 -108 -4 -121 32 -5 17 -11 34 -13 38 -2
4 40 9 92 12 91 5 95 6 104 31 19 55 -55 149 -118 149 -12 0 -38 -14 -59 -31z
m116 -50 c33 -38 19 -52 -53 -53 -59 -1 -65 1 -68 20 -7 51 85 76 121 33z"/>
<path d="M2225 1556 c-29 -24 -30 -24 -43 -4 -9 12 -18 16 -23 11 -5 -5 -11
-71 -13 -146 -4 -112 -2 -138 11 -148 24 -21 33 7 33 104 0 115 17 147 77 147
57 0 67 -21 60 -132 -6 -103 -3 -128 18 -128 29 0 34 26 28 146 -6 115 -7 120
-36 147 -36 33 -72 35 -112 3z"/>
<path d="M2484 1545 l-39 -36 0 -92 c0 -103 8 -118 74 -152 32 -16 36 -16 63
-1 50 30 67 -6 23 -49 -27 -28 -66 -32 -89 -10 -16 16 -62 20 -70 6 -3 -5 9
-20 26 -35 46 -37 123 -37 164 1 l29 27 5 165 c3 99 2 171 -4 179 -5 7 -18 11
-29 8 -11 -3 -33 2 -48 10 -42 21 -63 17 -105 -21z m126 -35 c19 -12 27 -148
11 -179 -16 -30 -90 -30 -117 0 -27 30 -27 138 0 168 20 22 79 29 106 11z"/>
<path d="M600 1558 c-47 -8 -83 -39 -78 -67 4 -22 54 -26 74 -7 20 20 58 21
74 1 20 -24 -4 -42 -62 -50 -55 -8 -98 -42 -98 -77 0 -60 73 -113 120 -88 13
7 40 9 69 5 50 -7 81 11 65 36 -4 7 -11 54 -15 105 -4 51 -13 102 -18 112 -14
26 -76 40 -131 30z m80 -183 c0 -43 -80 -63 -88 -22 -5 28 17 47 54 47 29 0
34 -3 34 -25z"/>
<path d="M953 1563 c-12 -2 -27 -11 -34 -19 -10 -13 -14 -13 -29 1 -11 10 -31
15 -51 13 l-33 -3 1 -132 c1 -73 4 -137 8 -143 9 -15 75 -13 76 3 0 6 0 54 -1
105 -2 88 -1 92 22 101 13 4 32 5 43 1 18 -7 20 -17 22 -101 1 -52 2 -100 2
-107 1 -9 14 -12 44 -10 l42 3 -3 110 c-4 114 -15 161 -42 168 -8 3 -22 7 -30
9 -8 3 -25 3 -37 1z"/>
<path d="M1180 1553 c-62 -31 -86 -120 -57 -206 19 -52 46 -69 107 -66 60 3
68 -3 46 -36 -12 -19 -25 -25 -51 -25 -18 0 -37 5 -40 10 -10 17 -44 11 -55
-10 -8 -15 -6 -23 12 -40 17 -16 35 -20 88 -20 63 0 68 2 104 37 l36 37 -2
160 -3 161 -60 0 c-33 0 -67 4 -75 8 -8 4 -30 -1 -50 -10z m104 -79 c11 -28 6
-120 -6 -132 -34 -34 -88 9 -88 70 0 53 18 78 56 78 20 0 34 -6 38 -16z"/>
<path d="M383 1547 c-3 -5 -6 -68 -6 -140 l0 -132 44 0 44 0 0 140 0 139 -38
1 c-21 1 -40 -2 -44 -8z"/>
</g>
</svg>
